<?xml version="1.0" encoding="UTF-8"?><svg id="Layer_1" xmlns="http://www.w3.org/2000/svg" viewBox="0 0 327.51 106.75"><defs><style>.cls-1{fill:#019ada;}.cls-2{fill:#fcb51d;}</style></defs><path class="cls-1" d="m121.84,91.91c-12.51,0-22.69-10.18-22.69-22.69s10.18-22.69,22.69-22.69,22.69,10.18,22.69,22.69-10.18,22.69-22.69,22.69Zm0-37.99c-8.44,0-15.3,6.86-15.3,15.3s6.86,15.3,15.3,15.3,15.3-6.86,15.3-15.3-6.86-15.3-15.3-15.3Z"/><path class="cls-1" d="m57.48,89.68h-20.54c-11.28,0-20.46-9.18-20.46-20.46s9.18-20.46,20.46-20.46h20.54s0,7.39,0,7.39h-20.54c-7.2,0-13.07,5.86-13.07,13.07s5.86,13.07,13.07,13.07h20.54v7.39Z"/><path class="cls-1" d="m98.63,89.68h-15.9c-11.27,0-20.44-9.17-20.44-20.44v-20.49h7.39v20.49c0,7.19,5.85,13.05,13.05,13.05h15.9v7.39Z"/><path class="cls-1" d="m218.01,89.68h-23.36v-40.92h23.36c11.28,0,20.46,9.18,20.46,20.46s-9.18,20.46-20.46,20.46Zm-15.96-7.39h15.96c7.2,0,13.07-5.86,13.07-13.07s-5.86-13.07-13.07-13.07h-15.96v26.13Z"/><path class="cls-1" d="m168.84,91.91c-11.28,0-20.46-9.18-20.46-20.46v-22.7h7.39v22.7c0,7.2,5.86,13.07,13.07,13.07s13.07-5.86,13.07-13.07v-22.7h7.39v22.7c0,11.28-9.18,20.46-20.46,20.46Z"/><path class="cls-2" d="m27.62,40.54c-6.09,0-11.05-4.59-11.05-10.62v-10.5h6.06v14.26c0,.66.38,1.02,1.03,1.02h7.92c.66,0,1.03-.38,1.03-1.02v-14.26h6.06v10.5c0,6.03-4.97,10.62-11.05,10.62Z"/><path class="cls-2" d="m51.75,18.23c6.09,0,11.06,4.59,11.06,10.62v10.49h-6.06v-14.26c0-.65-.38-1.02-1.03-1.02h-7.92c-.66,0-1.04.38-1.04,1.02v14.26h-6.06v-10.49c0-6.02,4.97-10.62,11.05-10.62Z"/><path class="cls-2" d="m109.05,18.23c6.09,0,11.05,4.59,11.05,10.62v10.49h-6.06v-14.26c0-.65-.38-1.02-1.03-1.02h-7.92c-.66,0-1.03.38-1.03,1.02v14.26h-6.06v-10.49c0-6.02,4.96-10.62,11.05-10.62Z"/><path class="cls-2" d="m84.86,18.27c-6.22,0-11.03,4.84-11.03,11.09s4.81,11.21,11.03,11.21,11.11-4.93,11.11-11.21-4.89-11.09-11.11-11.09Zm5.37,15.34c0,.66-.38,1.03-1.04,1.03h-8.55c-.66,0-1.04-.38-1.04-1.03v-8.46c0-.66.38-1.03,1.04-1.03h8.55c.66,0,1.04.38,1.04,1.03v8.46Z"/><path class="cls-2" d="m71.41,19.42h-6.06v19.93h6.06v-19.93Z"/><path class="cls-1" d="m294.64,60.91c-10.04,0-14.85,6.97-19.09,13.12-4.11,5.96-6.91,9.62-12.31,9.62-6.47,0-11.17-4.7-11.17-11.17s5.01-11.17,11.17-11.17c3.36,0,6.49,1.47,8.59,4.03.79.97,1.23,1.51,1.23,1.52l5.07-4.05s-.45-.57-1.28-1.58c-2.21-2.69-5.13-4.62-8.39-5.62,2.09-3.63,6.01-6,10.35-6,4.6,0,8.83,2.69,10.79,6.85l5.87-2.76c-3.02-6.42-9.56-10.57-16.66-10.57-7.64,0-14.46,4.76-17.17,11.78-8.98.82-16.05,8.39-16.05,17.58,0,10.06,7.59,17.65,17.65,17.65,9.08,0,13.63-6.6,17.65-12.42,3.82-5.53,7.12-10.32,13.75-10.32,5.26,0,9.88,4.34,9.88,9.29s-4.17,9.29-9.29,9.29c-2.85,0-5.61-1.41-7.77-3.98l-4.96,4.18c3.41,4.06,7.93,6.29,12.73,6.29,8.7,0,15.78-7.08,15.78-15.78s-7.5-15.78-16.37-15.78Z"/></svg>