<svg xmlns="http://www.w3.org/2000/svg" width="1070" height="1070" viewBox="0 0 1070 1070" font-family="IBM Plex Mono, Menlo, Consolas, monospace"><rect x="0" y="0" width="1070" height="1070" fill="rgb(255, 255, 255)" stroke="rgb(207, 203, 192)" stroke-width="1"></rect><text x="35" y="42" dominant-baseline="central" font-size="17" fill="rgb(35, 48, 58)" font-weight="600" letter-spacing="2px">UNION — PLATFORM ARCHITECTURE</text><rect x="35" y="98" width="1000" height="88.5" fill="none" stroke="rgb(154, 164, 171)" stroke-width="1" stroke-dasharray="4 3"></rect><rect x="48" y="90" width="243.5" height="17" fill="rgb(255, 255, 255)"></rect><text x="56" y="98.5" dominant-baseline="central" font-size="11" fill="rgb(35, 48, 58)" letter-spacing="1.5px">USER INTERACTION SURFACES</text><rect x="266.5" y="90" width="17" height="17" rx="8.5" fill="rgb(222, 154, 38)"></rect><text x="271.25" y="98.5" dominant-baseline="central" font-size="10" fill="rgb(255, 255, 255)" letter-spacing="1.5px">1</text><rect x="56" y="127" width="229" height="40.5" fill="rgb(246, 172, 63)" stroke="rgb(35, 48, 58)" stroke-width="1"></rect><text x="129.25" y="147.25" dominant-baseline="central" font-size="12.5" fill="rgb(35, 48, 58)">Frontend UI</text><rect x="299" y="127" width="229" height="40.5" fill="rgb(246, 172, 63)" stroke="rgb(35, 48, 58)" stroke-width="1"></rect><text x="383.5" y="147.25" dominant-baseline="central" font-size="12.5" fill="rgb(35, 48, 58)">gRPC API</text><rect x="542" y="127" width="229" height="40.5" fill="rgb(246, 172, 63)" stroke="rgb(35, 48, 58)" stroke-width="1"></rect><text x="622.75" y="147.25" dominant-baseline="central" font-size="12.5" fill="rgb(35, 48, 58)">Flyte CLI</text><rect x="785" y="127" width="229" height="40.5" fill="rgb(246, 172, 63)" stroke="rgb(35, 48, 58)" stroke-width="1"></rect><text x="865.75" y="147.25" dominant-baseline="central" font-size="12.5" fill="rgb(35, 48, 58)">Flyte SDK</text><text x="516.48" y="190.25" dominant-baseline="central" font-size="10" fill="rgb(35, 48, 58)">▲</text><rect x="518.99" y="194.5" width="1" height="40" fill="rgb(35, 48, 58)"></rect><text x="516.48" y="238.25" dominant-baseline="central" font-size="10" fill="rgb(35, 48, 58)">▼</text><rect x="536.51" y="206" width="17" height="17" rx="8.5" fill="rgb(222, 154, 38)"></rect><text x="542.01" y="214.5" dominant-baseline="central" font-size="10" fill="rgb(255, 255, 255)">2</text><rect x="35" y="242.5" width="1000" height="269.5" fill="rgb(251, 241, 220)" stroke="rgb(154, 164, 171)" stroke-width="1" stroke-dasharray="4 3"></rect><rect x="48" y="234.5" width="235.41" height="17" fill="rgb(255, 255, 255)"></rect><text x="56" y="243" dominant-baseline="central" font-size="11" fill="rgb(35, 48, 58)" letter-spacing="1.5px">UNION CONTROL PLANE CELL</text><rect x="258.41" y="234.5" width="17" height="17" rx="8.5" fill="rgb(222, 154, 38)"></rect><text x="263.16" y="243" dominant-baseline="central" font-size="10" fill="rgb(255, 255, 255)" letter-spacing="1.5px">3</text><rect x="56" y="273.5" width="453" height="191.5" fill="none" stroke="rgb(203, 178, 124)" stroke-width="1" stroke-dasharray="4 3"></rect><rect x="67" y="266.5" width="355" height="12.5" fill="rgb(251, 241, 220)"></rect><text x="73" y="272.75" dominant-baseline="central" font-size="10" fill="rgb(138, 109, 31)" letter-spacing="1px">REGIONAL CONTROL PLANE · MULTI-REGION COMING SOON</text><rect x="73" y="302.5" width="202.5" height="40.5" fill="rgb(246, 172, 63)" stroke="rgb(35, 48, 58)" stroke-width="1"></rect><text x="121.75" y="322.75" dominant-baseline="central" font-size="12.5" fill="rgb(35, 48, 58)">App management</text><rect x="73" y="355" width="202.5" height="40.5" fill="rgb(246, 172, 63)" stroke="rgb(35, 48, 58)" stroke-width="1"></rect><text x="121.75" y="375.25" dominant-baseline="central" font-size="12.5" fill="rgb(35, 48, 58)">Task inventory</text><rect x="73" y="407.5" width="202.5" height="40.5" fill="rgb(246, 172, 63)" stroke="rgb(35, 48, 58)" stroke-width="1"></rect><text x="121.75" y="427.75" dominant-baseline="central" font-size="12.5" fill="rgb(35, 48, 58)">Run management</text><rect x="289.5" y="302.5" width="202.5" height="40" fill="rgb(251, 228, 179)" stroke="rgb(154, 138, 106)" stroke-width="1"></rect><text x="354.75" y="322.5" dominant-baseline="central" font-size="12" fill="rgb(106, 90, 51)">Blob store</text><rect x="289.5" y="354.5" width="202.5" height="40" fill="rgb(251, 228, 179)" stroke="rgb(154, 138, 106)" stroke-width="1"></rect><text x="340.34" y="374.5" dominant-baseline="central" font-size="12" fill="rgb(106, 90, 51)">Metadata store</text><rect x="289.5" y="406.5" width="202.5" height="40" fill="rgb(251, 228, 179)" stroke="rgb(154, 138, 106)" stroke-width="1"></rect><text x="372.75" y="426.5" dominant-baseline="central" font-size="12" fill="rgb(106, 90, 51)">Cache</text><text x="513" y="357.75" dominant-baseline="central" font-size="10" fill="rgb(35, 48, 58)">◀</text><rect x="519.02" y="357.25" width="31.95" height="1" fill="rgb(35, 48, 58)"></rect><text x="550.98" y="357.75" dominant-baseline="central" font-size="10" fill="rgb(35, 48, 58)">▶</text><rect x="526.5" y="370" width="17" height="17" rx="8.5" fill="rgb(222, 154, 38)"></rect><text x="532" y="378.5" dominant-baseline="central" font-size="10" fill="rgb(255, 255, 255)">4</text><rect x="561" y="273.5" width="453" height="191.5" fill="none" stroke="rgb(203, 178, 124)" stroke-width="1" stroke-dasharray="4 3"></rect><rect x="572" y="266.5" width="222" height="12.5" fill="rgb(251, 241, 220)"></rect><text x="578" y="272.75" dominant-baseline="central" font-size="10" fill="rgb(138, 109, 31)" letter-spacing="1px">DATA PLANE MANAGEMENT SERVICES</text><rect x="578" y="302.5" width="203.5" height="40.5" fill="rgb(246, 172, 63)" stroke="rgb(35, 48, 58)" stroke-width="1"></rect><text x="634.75" y="322.75" dominant-baseline="central" font-size="12.5" fill="rgb(35, 48, 58)">Core leasing</text><rect x="793.5" y="302.5" width="203.5" height="40.5" fill="rgb(246, 172, 63)" stroke="rgb(35, 48, 58)" stroke-width="1"></rect><text x="846.5" y="322.75" dominant-baseline="central" font-size="12.5" fill="rgb(35, 48, 58)">Stateful task</text><rect x="578" y="355" width="203.5" height="40.5" fill="rgb(246, 172, 63)" stroke="rgb(35, 48, 58)" stroke-width="1"></rect><text x="612.25" y="375.25" dominant-baseline="central" font-size="12.5" fill="rgb(35, 48, 58)">Cluster management</text><rect x="793.5" y="355" width="203.5" height="40.5" fill="rgb(246, 172, 63)" stroke="rgb(35, 48, 58)" stroke-width="1"></rect><text x="850.25" y="375.25" dominant-baseline="central" font-size="12.5" fill="rgb(35, 48, 58)">Shard router</text><rect x="578" y="407.5" width="419" height="40" fill="rgb(251, 228, 179)" stroke="rgb(154, 138, 106)" stroke-width="1"></rect><text x="747.9" y="427.5" dominant-baseline="central" font-size="12" fill="rgb(106, 90, 51)">State store</text><rect x="275.84" y="465" width="1" height="46" fill="rgb(35, 48, 58)"></rect><rect x="275.3" y="512" width="1" height="22" fill="rgb(35, 48, 58)"></rect><text x="272.78" y="536.75" dominant-baseline="central" font-size="10" fill="rgb(35, 48, 58)">▼</text><rect x="193.59" y="542" width="164.41" height="36" fill="rgb(246, 172, 63)" stroke="rgb(35, 48, 58)" stroke-width="1"></rect><text x="214.59" y="560" dominant-baseline="central" font-size="12" fill="rgb(35, 48, 58)">Identity provider</text><text x="531.98" y="515.75" dominant-baseline="central" font-size="10" fill="rgb(35, 48, 58)">▲</text><rect x="534.5" y="520" width="1" height="22" fill="rgb(35, 48, 58)"></rect><rect x="434.8" y="542" width="200.41" height="36" fill="rgb(246, 172, 63)" stroke="rgb(35, 48, 58)" stroke-width="1"></rect><text x="455.8" y="560" dominant-baseline="central" font-size="12" fill="rgb(35, 48, 58)">Elastic load balancing</text><rect x="647.2" y="551.5" width="17" height="17" rx="8.5" fill="rgb(222, 154, 38)"></rect><text x="652.7" y="560" dominant-baseline="central" font-size="10" fill="rgb(255, 255, 255)">5</text><text x="674.2" y="559.75" dominant-baseline="central" font-size="10" fill="rgb(154, 138, 106)" letter-spacing="1px">MUTUAL TLS · PROVISION / REPORT</text><rect x="534.5" y="578" width="1" height="22" fill="rgb(35, 48, 58)"></rect><text x="531.98" y="603.75" dominant-baseline="central" font-size="10" fill="rgb(35, 48, 58)">▼</text><rect x="35" y="608" width="1000" height="271.5" fill="rgb(234, 243, 251)" stroke="rgb(154, 164, 171)" stroke-width="1" stroke-dasharray="4 3"></rect><rect x="48" y="600" width="429.1" height="14.5" fill="rgb(255, 255, 255)"></rect><text x="56" y="607.25" dominant-baseline="central" font-size="11" fill="rgb(35, 48, 58)" letter-spacing="1.5px">CUSTOMER DATA PLANE · AWS / GCP / AZURE / NEOCLOUDS</text><rect x="814" y="600" width="208" height="12.5" fill="rgb(255, 255, 255)"></rect><text x="822" y="606.25" dominant-baseline="central" font-size="10" fill="rgb(222, 154, 38)" font-style="italic">*Completely isolated and private</text><rect x="56" y="641" width="470" height="171" fill="none" stroke="rgb(203, 178, 124)" stroke-width="1" stroke-dasharray="4 3"></rect><rect x="67" y="634" width="138" height="12.5" fill="rgb(234, 243, 251)"></rect><text x="73" y="640.25" dominant-baseline="central" font-size="10" fill="rgb(138, 109, 31)" letter-spacing="1px">KUBERNETES CLUSTER</text><rect x="71" y="668" width="214" height="40.5" fill="rgb(246, 172, 63)" stroke="rgb(35, 48, 58)" stroke-width="1"></rect><text x="136.75" y="688.25" dominant-baseline="central" font-size="12.5" fill="rgb(35, 48, 58)">Union agent</text><rect x="297" y="668" width="214" height="40.5" fill="rgb(246, 172, 63)" stroke="rgb(35, 48, 58)" stroke-width="1"></rect><text x="344" y="688.25" dominant-baseline="central" font-size="12.5" fill="rgb(35, 48, 58)">Execution engine</text><rect x="179.69" y="720.5" width="49.8" height="28.5" fill="rgb(251, 228, 179)" stroke="rgb(154, 138, 106)" stroke-width="1"></rect><text x="194.69" y="734.75" dominant-baseline="central" font-size="11" fill="rgb(106, 90, 51)">Pod</text><rect x="239.49" y="720.5" width="49.8" height="28.5" fill="rgb(251, 228, 179)" stroke="rgb(154, 138, 106)" stroke-width="1"></rect><text x="254.49" y="734.75" dominant-baseline="central" font-size="11" fill="rgb(106, 90, 51)">Pod</text><rect x="299.3" y="720.5" width="49.8" height="28.5" fill="rgb(251, 228, 179)" stroke="rgb(154, 138, 106)" stroke-width="1"></rect><text x="314.3" y="734.75" dominant-baseline="central" font-size="11" fill="rgb(106, 90, 51)">Pod</text><rect x="359.1" y="720.5" width="43.2" height="28.5" fill="none" stroke="rgb(154, 138, 106)" stroke-width="1" stroke-dasharray="4 3"></rect><text x="374.1" y="734.75" dominant-baseline="central" font-size="11" fill="rgb(154, 138, 106)">×n</text><rect x="71" y="761" width="440" height="36" fill="rgb(246, 172, 63)" stroke="rgb(35, 48, 58)" stroke-width="1"></rect><text x="226.2" y="779" dominant-baseline="central" font-size="12" fill="rgb(35, 48, 58)">Cold start booster</text><rect x="544" y="641" width="470" height="171" fill="none" stroke="rgb(203, 178, 124)" stroke-width="1" stroke-dasharray="4 3"></rect><rect x="555" y="634" width="138" height="12.5" fill="rgb(234, 243, 251)"></rect><text x="561" y="640.25" dominant-baseline="central" font-size="10" fill="rgb(138, 109, 31)" letter-spacing="1px">KUBERNETES CLUSTER</text><rect x="559" y="668" width="214" height="40.5" fill="rgb(246, 172, 63)" stroke="rgb(35, 48, 58)" stroke-width="1"></rect><text x="624.75" y="688.25" dominant-baseline="central" font-size="12.5" fill="rgb(35, 48, 58)">Union agent</text><rect x="785" y="668" width="214" height="40.5" fill="rgb(246, 172, 63)" stroke="rgb(35, 48, 58)" stroke-width="1"></rect><text x="832" y="688.25" dominant-baseline="central" font-size="12.5" fill="rgb(35, 48, 58)">Execution engine</text><rect x="667.69" y="720.5" width="49.8" height="28.5" fill="rgb(251, 228, 179)" stroke="rgb(154, 138, 106)" stroke-width="1"></rect><text x="682.69" y="734.75" dominant-baseline="central" font-size="11" fill="rgb(106, 90, 51)">Pod</text><rect x="727.49" y="720.5" width="49.8" height="28.5" fill="rgb(251, 228, 179)" stroke="rgb(154, 138, 106)" stroke-width="1"></rect><text x="742.49" y="734.75" dominant-baseline="central" font-size="11" fill="rgb(106, 90, 51)">Pod</text><rect x="787.3" y="720.5" width="49.8" height="28.5" fill="rgb(251, 228, 179)" stroke="rgb(154, 138, 106)" stroke-width="1"></rect><text x="802.3" y="734.75" dominant-baseline="central" font-size="11" fill="rgb(106, 90, 51)">Pod</text><rect x="847.1" y="720.5" width="43.2" height="28.5" fill="none" stroke="rgb(154, 138, 106)" stroke-width="1" stroke-dasharray="4 3"></rect><text x="862.1" y="734.75" dominant-baseline="central" font-size="11" fill="rgb(154, 138, 106)">×n</text><rect x="559" y="761" width="440" height="36" fill="rgb(246, 172, 63)" stroke="rgb(35, 48, 58)" stroke-width="1"></rect><text x="714.2" y="779" dominant-baseline="central" font-size="12" fill="rgb(35, 48, 58)">Cold start booster</text><rect x="56" y="828" width="958" height="32.5" fill="rgb(251, 228, 179)" stroke="rgb(154, 138, 106)" stroke-width="1"></rect><text x="348.8" y="844.25" dominant-baseline="central" font-size="11" fill="rgb(106, 90, 51)" letter-spacing="1px">OBJECT STORE · S3 / R2 / GCS / ABFS / VAST / WEKA</text><rect x="35" y="903.5" width="1000" height="1" fill="rgb(207, 203, 192)"></rect><rect x="35" y="920.5" width="16" height="16" rx="8" fill="rgb(222, 154, 38)"></rect><text x="40.15" y="928.38" dominant-baseline="central" font-size="9.5" fill="rgb(255, 255, 255)">1</text><text x="61" y="928.75" dominant-baseline="central" font-size="11" fill="rgb(106, 90, 51)">Flyte OSS DevX plus enhanced Union UI.</text><rect x="35" y="945" width="16" height="16" rx="8" fill="rgb(222, 154, 38)"></rect><text x="40.15" y="952.88" dominant-baseline="central" font-size="9.5" fill="rgb(255, 255, 255)">2</text><text x="61" y="953.25" dominant-baseline="central" font-size="11" fill="rgb(106, 90, 51)">Secure connection via OAuth2, SSO and RBAC.</text><rect x="35" y="969.5" width="16" height="16" rx="8" fill="rgb(222, 154, 38)"></rect><text x="40.15" y="977.38" dominant-baseline="central" font-size="9.5" fill="rgb(255, 255, 255)">3</text><text x="61" y="977.75" dominant-baseline="central" font-size="11" fill="rgb(106, 90, 51)">Scalable, multi-tenant regional control plane cell.</text><rect x="35" y="994" width="16" height="16" rx="8" fill="rgb(222, 154, 38)"></rect><text x="40.15" y="1001.88" dominant-baseline="central" font-size="9.5" fill="rgb(255, 255, 255)">4</text><text x="61" y="1002.25" dominant-baseline="central" font-size="11" fill="rgb(106, 90, 51)">Frontend services segregated from runtime services for high availability and failure tolerance.</text><rect x="35" y="1018.5" width="16" height="16" rx="8" fill="rgb(222, 154, 38)"></rect><text x="40.15" y="1026.38" dominant-baseline="central" font-size="9.5" fill="rgb(255, 255, 255)">5</text><text x="61" y="1026.75" dominant-baseline="central" font-size="11" fill="rgb(106, 90, 51)">Data plane hosted in customer cloud / VPC. No data or logs accessible by control plane. Fully isolated, secure, multi-cloud.</text></svg>