<svg xmlns="http://www.w3.org/2000/svg" width="1450" height="869" viewBox="0 0 1450 869" font-family="IBM Plex Mono, Menlo, Consolas, monospace"><rect x="0" y="0" width="1450" height="868.66" fill="rgb(255, 255, 255)" stroke="rgb(207, 203, 192)" stroke-width="1"></rect><text x="35" y="42" dominant-baseline="central" font-size="17" fill="rgb(35, 48, 58)" font-weight="600" letter-spacing="2px">UNION — PLATFORM ARCHITECTURE</text><rect x="35" y="92" width="67" height="28" fill="rgb(246, 172, 63)" stroke="rgb(35, 48, 58)" stroke-width="1"></rect><text x="48" y="106" dominant-baseline="central" font-size="12" fill="rgb(35, 48, 58)" letter-spacing="1px">USERS</text><rect x="64.5" y="126" width="1" height="20" fill="rgb(35, 48, 58)"></rect><text x="61.98" y="148.75" dominant-baseline="central" font-size="10" fill="rgb(35, 48, 58)">▼</text><rect x="35" y="152" width="290" height="282" fill="none" stroke="rgb(154, 164, 171)" stroke-width="1" stroke-dasharray="4 3"></rect><rect x="48" y="144" width="243.5" height="17" fill="rgb(255, 255, 255)"></rect><text x="56" y="152.5" dominant-baseline="central" font-size="11" fill="rgb(35, 48, 58)" letter-spacing="1.5px">USER INTERACTION SURFACES</text><rect x="266.5" y="144" width="17" height="17" rx="8.5" fill="rgb(222, 154, 38)"></rect><text x="271.25" y="152.5" dominant-baseline="central" font-size="10" fill="rgb(255, 255, 255)" letter-spacing="1.5px">1</text><rect x="56" y="179" width="248" height="43" fill="rgb(246, 172, 63)" stroke="rgb(35, 48, 58)" stroke-width="1"></rect><text x="137.09" y="200.5" dominant-baseline="central" font-size="13" fill="rgb(35, 48, 58)">Frontend UI</text><rect x="56" y="236" width="248" height="43" fill="rgb(246, 172, 63)" stroke="rgb(35, 48, 58)" stroke-width="1"></rect><text x="148.8" y="257.5" dominant-baseline="central" font-size="13" fill="rgb(35, 48, 58)">gRPC API</text><rect x="56" y="293" width="248" height="43" fill="rgb(246, 172, 63)" stroke="rgb(35, 48, 58)" stroke-width="1"></rect><text x="144.9" y="314.5" dominant-baseline="central" font-size="13" fill="rgb(35, 48, 58)">Flyte CLI</text><rect x="56" y="350" width="248" height="43" fill="rgb(246, 172, 63)" stroke="rgb(35, 48, 58)" stroke-width="1"></rect><text x="144.9" y="371.5" dominant-baseline="central" font-size="13" fill="rgb(35, 48, 58)">Flyte SDK</text><text x="325" y="251.5" dominant-baseline="central" font-size="10" fill="rgb(35, 48, 58)">◀</text><rect x="331.02" y="251" width="51.95" height="1" fill="rgb(35, 48, 58)"></rect><text x="382.98" y="251.5" dominant-baseline="central" font-size="10" fill="rgb(35, 48, 58)">▶</text><rect x="348.5" y="263.75" width="17" height="17" rx="8.5" fill="rgb(222, 154, 38)"></rect><text x="354" y="272.25" dominant-baseline="central" font-size="10" fill="rgb(255, 255, 255)">2</text><rect x="389" y="92" width="1026" height="342" fill="rgb(251, 241, 220)" stroke="rgb(154, 164, 171)" stroke-width="1" stroke-dasharray="4 3"></rect><rect x="402" y="84" width="235.41" height="17" fill="rgb(255, 255, 255)"></rect><text x="410" y="92.5" dominant-baseline="central" font-size="11" fill="rgb(35, 48, 58)" letter-spacing="1.5px">UNION CONTROL PLANE CELL</text><rect x="612.41" y="84" width="17" height="17" rx="8.5" fill="rgb(222, 154, 38)"></rect><text x="617.16" y="92.5" dominant-baseline="central" font-size="10" fill="rgb(255, 255, 255)" letter-spacing="1.5px">3</text><rect x="414" y="123" width="460" height="218" fill="none" stroke="rgb(203, 178, 124)" stroke-width="1" stroke-dasharray="4 3"></rect><rect x="425" y="116" width="320" height="12.5" fill="rgb(251, 241, 220)"></rect><text x="431" y="122.25" dominant-baseline="central" font-size="10" fill="rgb(138, 109, 31)" letter-spacing="1px">REGIONAL CONTROL PLANE · MULTI-REGION FUTURE</text><text x="433" y="158.25" dominant-baseline="central" font-size="10" fill="rgb(154, 138, 106)" letter-spacing="1px">SERVICES</text><rect x="433" y="176.5" width="204" height="40.5" fill="rgb(246, 172, 63)" stroke="rgb(35, 48, 58)" stroke-width="1"></rect><text x="482.5" y="196.75" dominant-baseline="central" font-size="12.5" fill="rgb(35, 48, 58)">App management</text><rect x="433" y="229" width="204" height="40.5" fill="rgb(246, 172, 63)" stroke="rgb(35, 48, 58)" stroke-width="1"></rect><text x="482.5" y="249.25" dominant-baseline="central" font-size="12.5" fill="rgb(35, 48, 58)">Task inventory</text><rect x="433" y="281.5" width="204" height="40.5" fill="rgb(246, 172, 63)" stroke="rgb(35, 48, 58)" stroke-width="1"></rect><text x="482.5" y="301.75" dominant-baseline="central" font-size="12.5" fill="rgb(35, 48, 58)">Run management</text><text x="651" y="158.25" dominant-baseline="central" font-size="10" fill="rgb(154, 138, 106)" letter-spacing="1px">STATE</text><rect x="651" y="176.5" width="204" height="40" fill="rgb(251, 228, 179)" stroke="rgb(154, 138, 106)" stroke-width="1"></rect><text x="717" y="196.5" dominant-baseline="central" font-size="12" fill="rgb(106, 90, 51)">S3 · Blobs</text><rect x="651" y="228.5" width="204" height="40" fill="rgb(251, 228, 179)" stroke="rgb(154, 138, 106)" stroke-width="1"></rect><text x="681" y="248.5" dominant-baseline="central" font-size="12" fill="rgb(106, 90, 51)">Aurora · Postgres DB</text><rect x="651" y="280.5" width="204" height="40" fill="rgb(251, 228, 179)" stroke="rgb(154, 138, 106)" stroke-width="1"></rect><text x="706.2" y="300.5" dominant-baseline="central" font-size="12" fill="rgb(106, 90, 51)">Redis · Cache</text><text x="876" y="220.5" dominant-baseline="central" font-size="10" fill="rgb(35, 48, 58)">◀</text><rect x="882.02" y="220" width="39.95" height="1" fill="rgb(35, 48, 58)"></rect><text x="921.98" y="220.5" dominant-baseline="central" font-size="10" fill="rgb(35, 48, 58)">▶</text><rect x="893.5" y="232.75" width="17" height="17" rx="8.5" fill="rgb(222, 154, 38)"></rect><text x="899" y="241.25" dominant-baseline="central" font-size="10" fill="rgb(255, 255, 255)">4</text><rect x="930" y="123" width="460" height="218" fill="none" stroke="rgb(203, 178, 124)" stroke-width="1" stroke-dasharray="4 3"></rect><rect x="941" y="116" width="215" height="12.5" fill="rgb(251, 241, 220)"></rect><text x="947" y="122.25" dominant-baseline="central" font-size="10" fill="rgb(138, 109, 31)" letter-spacing="1px">DATAPLANE MANAGEMENT SERVICES</text><rect x="949" y="152" width="205" height="40.5" fill="rgb(246, 172, 63)" stroke="rgb(35, 48, 58)" stroke-width="1"></rect><text x="1006.5" y="172.25" dominant-baseline="central" font-size="12.5" fill="rgb(35, 48, 58)">Core leasing</text><rect x="1166" y="152" width="205" height="40.5" fill="rgb(246, 172, 63)" stroke="rgb(35, 48, 58)" stroke-width="1"></rect><text x="1219.75" y="172.25" dominant-baseline="central" font-size="12.5" fill="rgb(35, 48, 58)">Stateful task</text><rect x="949" y="204.5" width="205" height="40.5" fill="rgb(246, 172, 63)" stroke="rgb(35, 48, 58)" stroke-width="1"></rect><text x="984" y="224.75" dominant-baseline="central" font-size="12.5" fill="rgb(35, 48, 58)">Cluster management</text><rect x="1166" y="204.5" width="205" height="40.5" fill="rgb(246, 172, 63)" stroke="rgb(35, 48, 58)" stroke-width="1"></rect><text x="1223.5" y="224.75" dominant-baseline="central" font-size="12.5" fill="rgb(35, 48, 58)">Shard router</text><rect x="949" y="257" width="422" height="40" fill="rgb(251, 228, 179)" stroke="rgb(154, 138, 106)" stroke-width="1"></rect><text x="1102.4" y="277" dominant-baseline="central" font-size="12" fill="rgb(106, 90, 51)">ScyllaDB · State</text><rect x="637.98" y="341" width="1" height="26" fill="rgb(35, 48, 58)"></rect><text x="635.46" y="369.75" dominant-baseline="central" font-size="10" fill="rgb(35, 48, 58)">▼</text><rect x="531.07" y="375" width="214.8" height="36" fill="rgb(246, 172, 63)" stroke="rgb(35, 48, 58)" stroke-width="1"></rect><text x="552.07" y="393" dominant-baseline="central" font-size="12" fill="rgb(35, 48, 58)">Identity provider · Okta</text><rect x="35" y="460" width="290" height="373.66" fill="none" stroke="rgb(222, 154, 38)" stroke-width="1" stroke-dasharray="4 3"></rect><rect x="48" y="452" width="40.3" height="14.5" fill="rgb(255, 255, 255)"></rect><text x="56" y="459.25" dominant-baseline="central" font-size="11" fill="rgb(222, 154, 38)" letter-spacing="1.5px">KEY</text><rect x="56" y="487" width="17" height="17" rx="8.5" fill="rgb(222, 154, 38)"></rect><text x="61.5" y="495.5" dominant-baseline="central" font-size="10" fill="rgb(255, 255, 255)">1</text><text x="83" y="495.5" dominant-baseline="central" font-size="11.5" fill="rgb(106, 90, 51)">Flyte OSS DevX plus enhanced</text><text x="83" y="513.32" dominant-baseline="central" font-size="11.5" fill="rgb(106, 90, 51)">Union UI.</text><rect x="56" y="539" width="17" height="17" rx="8.5" fill="rgb(222, 154, 38)"></rect><text x="61.5" y="547.5" dominant-baseline="central" font-size="10" fill="rgb(255, 255, 255)">2</text><text x="83" y="547.5" dominant-baseline="central" font-size="11.5" fill="rgb(106, 90, 51)">Secure connection via OAuth2,</text><text x="83" y="565.32" dominant-baseline="central" font-size="11.5" fill="rgb(106, 90, 51)">SSO and RBAC.</text><rect x="56" y="588.64" width="17" height="17" rx="8.5" fill="rgb(222, 154, 38)"></rect><text x="61.5" y="597.14" dominant-baseline="central" font-size="10" fill="rgb(255, 255, 255)">3</text><text x="83" y="597.14" dominant-baseline="central" font-size="11.5" fill="rgb(106, 90, 51)">Scalable, multi-tenant regional</text><text x="83" y="614.96" dominant-baseline="central" font-size="11.5" fill="rgb(106, 90, 51)">control plane cell.</text><rect x="56" y="638.28" width="17" height="17" rx="8.5" fill="rgb(222, 154, 38)"></rect><text x="61.5" y="646.78" dominant-baseline="central" font-size="10" fill="rgb(255, 255, 255)">4</text><text x="83" y="646.78" dominant-baseline="central" font-size="11.5" fill="rgb(106, 90, 51)">Frontend services segregated</text><text x="83" y="664.6" dominant-baseline="central" font-size="11.5" fill="rgb(106, 90, 51)">from runtime services for high</text><text x="83" y="682.42" dominant-baseline="central" font-size="11.5" fill="rgb(106, 90, 51)">availability and failure</text><text x="83" y="700.24" dominant-baseline="central" font-size="11.5" fill="rgb(106, 90, 51)">tolerance.</text><rect x="56" y="723.56" width="17" height="17" rx="8.5" fill="rgb(222, 154, 38)"></rect><text x="61.5" y="732.06" dominant-baseline="central" font-size="10" fill="rgb(255, 255, 255)">5</text><text x="83" y="732.06" dominant-baseline="central" font-size="11.5" fill="rgb(106, 90, 51)">Data plane hosted in customer</text><text x="83" y="749.88" dominant-baseline="central" font-size="11.5" fill="rgb(106, 90, 51)">cloud / VPC. No data or logs</text><text x="83" y="767.7" dominant-baseline="central" font-size="11.5" fill="rgb(106, 90, 51)">accessible by control plane.</text><text x="83" y="794.43" dominant-baseline="central" font-size="11.5" fill="rgb(106, 90, 51)">Fully isolated, secure, multi-cloud.</text><text x="1016.8" y="471.75" dominant-baseline="central" font-size="10" fill="rgb(154, 138, 106)" letter-spacing="1px">MUTUAL TLS</text><text x="960.8" y="484.25" dominant-baseline="central" font-size="10" fill="rgb(154, 138, 106)" letter-spacing="1px">PROVISION / REPORT</text><text x="1179.38" y="437.75" dominant-baseline="central" font-size="10" fill="rgb(35, 48, 58)">▲</text><rect x="1181.9" y="442" width="1" height="22.75" fill="rgb(35, 48, 58)"></rect><rect x="1098.8" y="464.75" width="167.2" height="26.5" fill="rgb(246, 172, 63)" stroke="rgb(35, 48, 58)" stroke-width="1"></rect><text x="1109.8" y="478" dominant-baseline="central" font-size="11" fill="rgb(35, 48, 58)">Elastic load balancing</text><rect x="1181.9" y="491.25" width="1" height="22.75" fill="rgb(35, 48, 58)"></rect><text x="1179.38" y="517.75" dominant-baseline="central" font-size="10" fill="rgb(35, 48, 58)">▼</text><rect x="1278" y="469.5" width="17" height="17" rx="8.5" fill="rgb(222, 154, 38)"></rect><text x="1283.5" y="478" dominant-baseline="central" font-size="10" fill="rgb(255, 255, 255)">5</text><rect x="389" y="522" width="1026" height="311.66" fill="rgb(234, 243, 251)" stroke="rgb(154, 164, 171)" stroke-width="1" stroke-dasharray="4 3"></rect><rect x="402" y="514" width="429.1" height="14.5" fill="rgb(255, 255, 255)"></rect><text x="410" y="521.25" dominant-baseline="central" font-size="11" fill="rgb(35, 48, 58)" letter-spacing="1.5px">CUSTOMER DATA PLANE · AWS / GCP / AZURE / NEOCLOUDS</text><rect x="1194" y="514" width="208" height="12.5" fill="rgb(255, 255, 255)"></rect><text x="1202" y="520.25" dominant-baseline="central" font-size="10" fill="rgb(222, 154, 38)" font-style="italic">*Completely isolated and private</text><rect x="414" y="555" width="476" height="173" fill="none" stroke="rgb(203, 178, 124)" stroke-width="1" stroke-dasharray="4 3"></rect><rect x="425" y="548" width="138" height="12.5" fill="rgb(234, 243, 251)"></rect><text x="431" y="554.25" dominant-baseline="central" font-size="10" fill="rgb(138, 109, 31)" letter-spacing="1px">KUBERNETES CLUSTER</text><rect x="431" y="582" width="215" height="40.5" fill="rgb(246, 172, 63)" stroke="rgb(35, 48, 58)" stroke-width="1"></rect><text x="497.25" y="602.25" dominant-baseline="central" font-size="12.5" fill="rgb(35, 48, 58)">Union agent</text><rect x="658" y="582" width="215" height="40.5" fill="rgb(246, 172, 63)" stroke="rgb(35, 48, 58)" stroke-width="1"></rect><text x="705.5" y="602.25" dominant-baseline="central" font-size="12.5" fill="rgb(35, 48, 58)">Execution engine</text><rect x="540.69" y="634.5" width="49.8" height="28.5" fill="rgb(251, 228, 179)" stroke="rgb(154, 138, 106)" stroke-width="1"></rect><text x="555.69" y="648.75" dominant-baseline="central" font-size="11" fill="rgb(106, 90, 51)">Pod</text><rect x="600.49" y="634.5" width="49.8" height="28.5" fill="rgb(251, 228, 179)" stroke="rgb(154, 138, 106)" stroke-width="1"></rect><text x="615.49" y="648.75" dominant-baseline="central" font-size="11" fill="rgb(106, 90, 51)">Pod</text><rect x="660.3" y="634.5" width="49.8" height="28.5" fill="rgb(251, 228, 179)" stroke="rgb(154, 138, 106)" stroke-width="1"></rect><text x="675.3" y="648.75" dominant-baseline="central" font-size="11" fill="rgb(106, 90, 51)">Pod</text><rect x="720.1" y="634.5" width="43.2" height="28.5" fill="none" stroke="rgb(154, 138, 106)" stroke-width="1" stroke-dasharray="4 3"></rect><text x="735.1" y="648.75" dominant-baseline="central" font-size="11" fill="rgb(154, 138, 106)">×n</text><rect x="431" y="675" width="442" height="36" fill="rgb(246, 172, 63)" stroke="rgb(35, 48, 58)" stroke-width="1"></rect><text x="587.2" y="693" dominant-baseline="central" font-size="12" fill="rgb(35, 48, 58)">Cold start booster</text><rect x="914" y="555" width="476" height="173" fill="none" stroke="rgb(203, 178, 124)" stroke-width="1" stroke-dasharray="4 3"></rect><rect x="925" y="548" width="138" height="12.5" fill="rgb(234, 243, 251)"></rect><text x="931" y="554.25" dominant-baseline="central" font-size="10" fill="rgb(138, 109, 31)" letter-spacing="1px">KUBERNETES CLUSTER</text><rect x="931" y="582" width="215" height="40.5" fill="rgb(246, 172, 63)" stroke="rgb(35, 48, 58)" stroke-width="1"></rect><text x="997.25" y="602.25" dominant-baseline="central" font-size="12.5" fill="rgb(35, 48, 58)">Union agent</text><rect x="1158" y="582" width="215" height="40.5" fill="rgb(246, 172, 63)" stroke="rgb(35, 48, 58)" stroke-width="1"></rect><text x="1205.5" y="602.25" dominant-baseline="central" font-size="12.5" fill="rgb(35, 48, 58)">Execution engine</text><rect x="1040.69" y="634.5" width="49.8" height="28.5" fill="rgb(251, 228, 179)" stroke="rgb(154, 138, 106)" stroke-width="1"></rect><text x="1055.69" y="648.75" dominant-baseline="central" font-size="11" fill="rgb(106, 90, 51)">Pod</text><rect x="1100.49" y="634.5" width="49.8" height="28.5" fill="rgb(251, 228, 179)" stroke="rgb(154, 138, 106)" stroke-width="1"></rect><text x="1115.49" y="648.75" dominant-baseline="central" font-size="11" fill="rgb(106, 90, 51)">Pod</text><rect x="1160.3" y="634.5" width="49.8" height="28.5" fill="rgb(251, 228, 179)" stroke="rgb(154, 138, 106)" stroke-width="1"></rect><text x="1175.3" y="648.75" dominant-baseline="central" font-size="11" fill="rgb(106, 90, 51)">Pod</text><rect x="1220.1" y="634.5" width="43.2" height="28.5" fill="none" stroke="rgb(154, 138, 106)" stroke-width="1" stroke-dasharray="4 3"></rect><text x="1235.1" y="648.75" dominant-baseline="central" font-size="11" fill="rgb(154, 138, 106)">×n</text><rect x="931" y="675" width="442" height="36" fill="rgb(246, 172, 63)" stroke="rgb(35, 48, 58)" stroke-width="1"></rect><text x="1087.2" y="693" dominant-baseline="central" font-size="12" fill="rgb(35, 48, 58)">Cold start booster</text><rect x="414" y="744" width="976" height="32.5" fill="rgb(251, 228, 179)" stroke="rgb(154, 138, 106)" stroke-width="1"></rect><text x="715.8" y="760.25" dominant-baseline="central" font-size="11" fill="rgb(106, 90, 51)" letter-spacing="1px">OBJECT STORE · S3 / R2 / GCS / ABFS / VAST / WEKA</text></svg>